<?xml version="1.0" encoding="UTF-8"?>
<svg id="Layer_1" data-name="Layer 1" xmlns="http://www.w3.org/2000/svg" viewBox="0 0 458.92 87.86">
  <defs>
    <style>
      .cls-1 {
        fill: #df3594;
      }

      .cls-2 {
        fill: #e076af;
      }

      .cls-3 {
        fill: #5fbfe2;
      }

      .cls-4 {
        fill: #de3493;
      }

      .cls-5 {
        fill: #2fabe2;
      }

      .cls-6 {
        fill: #31aae1;
      }
    </style>
  </defs>
  <g>
    <path class="cls-4" d="m153.17,43.6h-3.26l-3.95,14.42c-.14.49-.21.97-.21,1.32,0,.97.42,1.46,1.46,1.94.9.42,3.95.9,5.2,1.04l-.55,2.22h-25.79l.55-2.22c1.18-.07,4.16-.35,5.2-.69,1.8-.62,2.57-1.94,2.98-3.4l9.5-34.11c.14-.62.28-1.18.28-1.59,0-.9-.42-1.39-1.39-1.87-.97-.42-3.61-1.11-4.65-1.18l.62-2.29h23.37c8.81,0,14.01,4.02,14.01,10.47,0,10.12-9.64,15.95-23.37,15.95Zm11.3-15.32c0-5.27-3.12-8.25-7.97-8.25l-5.75,20.59c8.6,0,13.73-4.65,13.73-12.34Z"/>
    <path class="cls-4" d="m204.19,44.92c-3.12,0-4.99-1.66-4.99-4.02,0-1.87.83-3.12,1.32-4.09l-.35-.28c-.83,0-4.37,4.51-5.69,6.86l-6.52,21.15h-9.98l6.93-22.12c.49-1.59,1.11-3.61,1.11-4.44,0-1.87-.42-2.5-1.66-2.5-2.77,0-4.99,3.88-6.59,7.97l-2.22-.76c2.43-6.24,4.99-10.89,11.93-10.89,3.81,0,7.97,1.32,7.97,6.59l.21.07c2.08-3.61,4.65-6.66,8.6-6.66s5.62,2.84,5.62,5.69c0,3.12-2.22,7.42-5.69,7.42Z"/>
    <path class="cls-4" d="m221.53,65.58c-4.71,0-11.93-3.19-11.93-12.34,0-11.23,8.39-21.42,21.7-21.42,4.71,0,12,3.54,12,12.34,0,11.86-7.97,21.42-21.77,21.42Zm8.88-31.41c-6.79,0-10.68,14.77-10.68,23.09,0,4.37,1.25,5.96,2.98,5.96,7.07,0,10.4-14.84,10.4-21.98,0-4.51-.62-7.07-2.7-7.07Z"/>
    <path class="cls-4" d="m294.67,65.3c-3.26,0-7.97-1.73-7.97-6.03,0-1.66.55-3.61,1.39-5.75l3.81-10.12c.62-1.66,1.39-3.74,1.39-5.06,0-1.39-.49-2.43-2.08-2.43-1.94,0-4.37,1.66-6.86,5.55l-7.49,23.09h-10.12l7.28-22.05c.42-1.18.83-2.91.83-4.16,0-1.39-.28-2.43-1.87-2.43-2.5,0-5.06,2.29-7.9,7.56l-6.93,21.08h-10.05l7.42-22.12c.55-1.66,1.11-3.61,1.11-4.44,0-1.87-.42-2.5-1.66-2.5-2.77,0-4.99,3.88-6.59,7.97l-2.22-.76c2.43-6.24,4.99-10.89,12-10.89,3.88,0,7.9,1.32,8.04,6.45l.21.07c2.5-3.95,5.69-6.52,10.19-6.52,4.16,0,7.49,3.19,7.49,6.73l.21.07c2.43-3.95,6.03-6.79,10.4-6.79,4.65,0,8.18,3.61,8.18,7.9,0,.97-.69,3.54-1.32,5.2l-3.67,9.92c-.9,2.36-1.32,3.47-1.32,4.51,0,1.87,1.18,2.29,2.15,2.29,2.57,0,4.23-2.57,6.31-7.42l2.22.76c-2.43,5.96-4.65,10.33-12.55,10.33Z"/>
    <path class="cls-5" d="m327.19,64.54h-23.02l.55-2.22c1.25-.07,4.16-.35,5.2-.69,1.8-.62,2.57-1.94,2.98-3.4l9.5-34.11c.14-.62.28-1.18.28-1.59,0-.9-.42-1.39-1.39-1.87-.97-.42-3.61-1.11-4.65-1.18l.62-2.29h23.78c10.05,0,20.66,4.85,20.66,18.51,0,18.44-14.7,28.84-34.53,28.84Zm9.64-44.51c-.69,0-1.8.14-2.22.14l-9.64,34.6c-.49,1.8-.62,2.77-.62,3.61,0,1.94,1.46,3.26,4.44,3.26,12,0,20.87-11.09,20.87-25.31,0-11.51-4.44-16.29-12.83-16.29Z"/>
    <path class="cls-5" d="m390.97,65.44c-3.88,0-7.42-1.66-7.49-6.31l-.21-.07c-2.5,4.09-5.55,6.52-9.92,6.52-4.65,0-9.5-2.57-9.5-11.3,0-8.18,6.79-22.46,19.28-22.46,2.98,0,5.82,1.53,6.38,5.13h.21l1.59-4.37h9.98l-7.77,22.4c-.62,1.8-1.04,3.54-1.04,4.37,0,1.87.42,2.43,1.66,2.43,2.84,0,5.27-3.54,6.86-7.63l2.22.83c-2.43,6.24-5.27,10.47-12.27,10.47Zm-6.38-30.58c-5.13,0-10.26,12.48-10.26,20.38,0,5.75,2.08,6.24,2.63,6.24,2.15,0,4.58-2.36,6.73-5.75l5.13-15.88c-.62-4.16-2.63-4.99-4.23-4.99Z"/>
    <path class="cls-5" d="m430.56,35.84h-8.81c-1.87,6.31-3.47,11.16-5.62,18.86-.42,1.53-1.04,3.67-1.04,4.44,0,2.08,1.39,2.5,2.36,2.5,2.98,0,5.06-2.7,7.14-7.7l2.15.83c-2.5,6.24-4.78,10.54-13.52,10.54-2.7,0-7.83-1.73-7.83-5.96,0-1.73.28-2.43.69-3.88,2.22-7.7,4.51-15.12,5.89-19.62h-6.66l.9-2.91h6.73l3.12-10.82h9.78l-3.26,10.82h8.88l-.9,2.91Z"/>
    <path class="cls-5" d="m440.2,51.02c-.35,1.59-.42,2.98-.42,4.37,0,4.58,2.01,6.79,5.41,6.79,3.74,0,8.04-4.16,10.33-8.88l2.22,1.04c-4.02,8.25-9.64,11.23-15.53,11.23-6.73,0-12.76-4.16-12.76-11.58,0-9.85,7.35-22.19,21.56-22.19,4.99,0,7.9,2.43,7.9,5.82,0,8.88-10.68,12.48-18.72,13.38Zm8.6-16.64c-2.63,0-6.59,7-8.25,14.56,7.77-1.66,9.71-7.7,9.71-11.16,0-1.59-.69-3.4-1.46-3.4Z"/>
  </g>
  <g>
    <path class="cls-3" d="m47.62,48.8l4.17,4.17s-8.35,9.06-19.48,10.88c0,0-15.12,3.45-17.38-10.7,0,0,5.9,12.58,18.72,7.16,0,0,6.98-3.34,13.95-11.51Z"/>
    <path class="cls-3" d="m16.03,22.68s-5.52,2.25-9.2,6.5c0,0,4.04-2.64,8.99-3.64,0,0,.15-2.44.21-2.86Z"/>
    <path class="cls-2" d="m41.56,52.39l-2.64,2.46s-7.83-12.19-7.47-25.76c0,0,.66,10.98,10.11,23.3Z"/>
    <path class="cls-6" d="m34.32,35.32s-1.61-6.26-1.31-8.17c0,0,6.8,1.07,16.46,10.32,0,0,8.86,8.2,11.24,11.33,0,0,8.68,8.05,9.54,8.38,0,0-4.98,5.43-5.58,5.9l-7.72-7.6-5.58-5.69s-12.85-13.42-17.05-14.46Z"/>
    <path class="cls-3" d="m34.76,20.83s-2.3,3.79-1.76,6.32c0,0,7.99,2.6,14.93,9.19,0,0,8.32,7.51,10.89,10.91,0,0,9.63,9.48,11.3,10.11l3.67-4.32s-23.26-23.64-27.13-26.15c0,0-5.78-4.44-11.9-6.05Z"/>
    <path class="cls-2" d="m58.95,4.49s-15.68-11.38-32.27,2.35c0,0,19.6-12.01,32.27,6.36,0,0,10.03-17.85,32.13-6.43,0,0-14.51-13.57-32.13-2.28Z"/>
    <path class="cls-1" d="m42.01,73.63s13.86,13.06,16.82,14.22c0,0,29.16-17.29,39.8-48.94,0,0-4.29-6.25-12.97-2.94,0,0-1.1,20.75-26.72,42.31,0,0-8.44-6.98-10.05-9.3,0,0-6.26,4.92-6.89,4.65Z"/>
    <path class="cls-2" d="m52.83,65.31s5.43,4.74,6.11,5.01c0,0,16.07-10.47,26.09-34.08l.63-.27s.63,19.59-26.72,42.31c0,0-9.42-8.05-10.05-9.3l3.94-3.67Z"/>
    <path class="cls-3" d="m60.17,36.42s13.24-14.42,22.9-15.77c0,0,15.12-2.97,25.85,6.5,0,0-13.1-7-28.82,1.81,0,0-11.92,7.29-15.77,11.71l-4.16-4.25Z"/>
    <path class="cls-1" d="m29.9,59.77s-12.4-16.34-12.28-30.68c0,0-1.67-13.21,9.18-22.27,0,0,19.62-12.11,32.14,6.38,0,0,10.44-18.13,32.2-6.26,0,0,5.23,3.56,8.09,12.27,0,0-7.55-2.67-15.78-.46,0,0-10.79-13.36-24.51,4.89,0,0-12.17-17.65-24.39-5.13,0,0-4.23,4.85-3.1,10.58,0,0-1.04,9.33,7.47,25.76,0,0-3.77,3.73-9.02,4.92Z"/>
    <path class="cls-6" d="m15.83,25.36s-4.7-.16-9,3.82c0,0-11.63,12.64-4.53,29.58,0,0,6.74,16.64,25.4,16.88,0,0,6.68.54,15.98-5.01,0,0,9.3-6.98,13.6-11.93l-5.49-5.72s-15.21,14.97-28.44,10.32c0,0-7.45-2.8-8.41-10.14,0,0-3.46-7.69,2.39-14.91,0,0-1.97-7.93-1.49-12.88Z"/>
    <path class="cls-6" d="m69.92,46.22s11.9-14.67,22.9-12.7c0,0,9.71,1.57,11.09,12.7,0,0,.63,3.22-.89,7.47,0,0-2.68,9.39-10.11,10.69,0,0-3.53.89-6.75.4,0,0-6.4,8.1-7.29,8.23,0,0,15.34,8.59,30.01-4.87,0,0,14.58-12.08,6.49-32.16,0,0-2.68-5.75-6.44-8.83,0,0-9.93-6.77-25.4,0,0,0-13.37,6.54-19.19,13.52l5.59,5.55Z"/>
  </g>
</svg>